<svg xmlns="http://www.w3.org/2000/svg" xmlns:xlink="http://www.w3.org/1999/xlink" width="188" height="73" viewBox="0 0 188 73">
  <defs>
    <rect id="bp-btn-pay-currencies-a" width="188" height="50" rx="4"/>
  </defs>
  <g fill="none" fill-rule="evenodd">
    <mask id="bp-btn-pay-currencies-b" fill="#fff">
      <use xlink:href="#bp-btn-pay-currencies-a"/>
    </mask>
    <use fill="#293C92" xlink:href="#bp-btn-pay-currencies-a"/>
    <g fill="#1A3B8B" mask="url(#bp-btn-pay-currencies-b)">
      <rect width="188" height="50"/>
    </g>
    <g transform="translate(24.231 11.64)">
      <g fill-rule="nonzero" transform="translate(11.737 3.314)">
        <g fill="#FFF" transform="translate(54.468)">
          <path d="M61.2468827 5.10893841L58.0620074 5.10893841 56.2189831 12.8855188 55.960313 13.9525755C55.7824772 14.0010781 55.6046414 14.0495807 55.4268062 14.0819157 55.1034681 14.1465858 54.7639638 14.1789209 54.4082922 14.1789209 54.0041204 14.1789209 53.6807828 14.1142508 53.4382795 14.0010781 53.2119435 13.8879054 53.0341077 13.7262301 52.9371062 13.4998848 52.8401052 13.2897069 52.8077712 13.0310265 52.8239379 12.740011 52.8401052 12.4489956 52.9047727 12.125645 52.985607 11.8022945L53.9556196 7.76041282 54.586128 5.07660339 51.3365852 5.07660339 49.8653991 11.2849336C49.6875634 12.0286398 49.5905618 12.740011 49.5582283 13.4190472 49.5258943 14.0980833 49.6390626 14.6801142 49.8653991 15.2136426 50.0917352 15.7310035 50.4959075 16.1351916 51.0455811 16.4423746 51.5952552 16.7495576 52.3874326 16.8950654 53.3897788 16.8950654 54.0849547 16.8950654 54.6992963 16.8303952 55.2166364 16.7172226 55.2328036 16.7172226 55.2651371 16.701055 55.2813039 16.701055 55.1358021 17.3477561 54.8447981 17.865117 54.3921255 18.2693052 53.9232861 18.6734933 53.244277 18.8836712 52.3389318 18.8836712 51.9509268 18.8836712 51.5952552 18.8675036 51.2719176 18.819001L50.6414093 21.4543079C51.0617484 21.5028105 51.5305877 21.5351455 52.0479278 21.5351455 53.017941 21.5351455 53.8586186 21.4219728 54.586128 21.211795 55.3136379 20.9854496 55.927979 20.6620991 56.4614863 20.2094083 56.9788264 19.7567176 57.4153323 19.1908541 57.7710038 18.5279856 58.1266749 17.8489494 58.4015122 17.0567406 58.6116815 16.1190241L60.8103774 6.87119884 61.2468827 5.10893841zM47.9092065 11.7537919C47.7152039 12.5621682 47.6505364 13.3867121 47.7313708 14.1950884 47.8122052 15.0196323 48.1355428 16.2645318 48.4427135 16.8950654L45.3710062 16.8950654C44.9991679 16.2645318 45.0153348 15.9573488 44.9345004 15.7633385 44.5303284 16.086689 44.0938226 16.361537 43.6088162 16.5717148 43.1238098 16.7818927 42.5903027 16.8950654 41.9759613 16.8950654 41.2646186 16.8950654 40.6502771 16.7657252 40.1491038 16.5232123 39.6479305 16.2806994 39.2275916 15.9411813 38.904254 15.5208256 38.5809164 15.1004699 38.35458 14.6154441 38.2090781 14.0495807 38.0635762 13.4837172 37.9989087 12.8855188 37.9989087 12.2388177 37.9989087 11.2525986 38.1767443 10.3310495 38.5162488 9.45800308 38.8719202 8.58495668 39.3569266 7.8250829 39.9712681 7.17838184 40.5856095 6.53168078 42.0891295 5.09277092 44.5464953 5.09277092L49.4773941 5.09277092 47.9092065 11.7537919zM45.6620101 7.79274784C44.174657 7.79274784 43.8998201 7.79274784 43.2854786 8.09993088 42.8489728 8.32627623 42.4933015 8.66579429 42.1861307 9.05381494 41.87896 9.4418356 41.6202899 9.89452633 41.4424542 10.4118872 41.2646186 10.929248 41.1676172 11.4627764 41.1676172 12.0124723 41.1676172 12.6915084 41.2807854 13.2412044 41.5071217 13.6453925 41.7334581 14.0495807 42.153797 14.243591 42.7681384 14.243591 43.091476 14.243591 43.3986468 14.1789209 43.6573168 14.0495807 43.9159869 13.9202405 44.2069908 13.7100626 44.4979946 13.4028796 44.5303284 13.047194 44.5788291 12.6753409 44.6434966 12.2873202 44.7081641 11.8992996 44.7889985 11.5274465 44.853666 11.204096L45.6620101 7.79274784zM37.1258971 9.78135361C37.1258971 10.8322429 36.9480614 11.7861269 36.6085569 12.6591734 36.2690524 13.5322198 35.784046 14.2759261 35.1697045 14.9064596 34.5553631 15.5369931 33.8278535 16.0220189 32.9710088 16.3777045 32.1141641 16.7333901 31.1926519 16.9112329 30.1903053 16.9112329 29.7052989 16.9112329 29.2202925 16.8627303 28.7191192 16.7818927L27.7491064 20.6782666 24.5642309 20.6782666 28.2664465 5.12510594 32.5183361 5.12510594C33.3266801 5.12510594 34.021856 5.25444619 34.5876968 5.49695906 35.1697045 5.73947198 35.6385441 6.07899005 36.0265492 6.49934572 36.3983875 6.91970143 36.6732245 7.42089476 36.8510601 7.98675817 37.0450627 8.53645409 37.1258971 9.13465255 37.1258971 9.78135361zM29.3172938 14.1950884C29.559797 14.2597585 29.8669677 14.2759261 30.2226391 14.2759261 30.7884799 14.2759261 31.2896532 14.1789209 31.7584928 13.968743 32.2111654 13.7585652 32.6153374 13.4675497 32.938675 13.0956966 33.2620126 12.7238435 33.5045158 12.2711528 33.6985184 11.7537919 33.8763541 11.236431 33.9733554 10.6544001 33.9733554 10.0238665 33.9733554 9.40950054 33.8440203 8.87597215 33.5691834 8.45561643 33.2943464 8.01909323 32.8255068 7.79274784 32.1464979 7.79274784L30.8854812 7.79274784 29.3172938 14.1950884zM22.6242052 14.1950884C22.2200332 14.1950884 21.8966956 14.1304183 21.6541923 14.0172456 21.4278561 13.9040729 21.2500204 13.7423977 21.1530191 13.5160523 21.0560178 13.3058744 21.023684 13.047194 21.0398509 12.7561786 21.0560178 12.465163 21.1206853 12.1418125 21.2015197 11.818462L22.1715325 7.77658031 25.7929138 7.77658031 26.4557559 5.09277092 22.8182078 5.09277092 23.6588856 1.6975903 20.2638406 2.23111868 18.1136455 11.3172687C17.9358098 12.0609749 17.8388085 12.7723461 17.8064748 13.4513822 17.774141 14.1304183 17.8873092 14.7124493 18.1136455 15.2459777 18.3399818 15.7633385 18.7441539 16.1675267 19.2938278 16.4747097 19.8435018 16.7818927 20.6356789 16.9274004 21.6380255 16.9274004 22.3332014 16.9274004 22.9475428 16.8627303 23.464883 16.7495576 23.5133836 16.7333901 23.5942181 16.7172226 23.6427187 16.701055L24.3055608 13.936408C24.0792244 14.0172456 23.8528881 14.0657482 23.6427187 14.0980833 23.3193811 14.1627534 22.9798766 14.1950884 22.6242052 14.1950884z"/>
          <polygon points="14.525 5.109 11.712 16.911 14.896 16.911 17.693 5.109"/>
          <polygon points="18.033 3.751 18.518 1.698 15.333 1.698 14.848 3.751"/>
          <path d="M7.47583809,5.12510594 C8.15484706,5.12510594 8.75302162,5.25444619 9.25419496,5.49695906 C9.75536825,5.73947198 10.1595402,6.06282251 10.4990447,6.48317818 C10.8223824,6.9035339 11.0648855,7.3885597 11.2265544,7.93825562 C11.3882232,8.48795149 11.4690576,9.08615001 11.4690576,9.73285107 C11.4690576,10.7190702 11.2912219,11.6406192 10.9193836,12.5298332 C10.5475454,13.4028796 10.062539,14.1789209 9.43203065,14.8256219 C8.80152228,15.472323 8.05784579,15.9896839 7.20100109,16.361537 C6.34415643,16.7333901 5.42264426,16.9274004 4.42029764,16.9274004 C4.29096259,16.9274004 4.06462627,16.9274004 3.74128865,16.9112329 C3.41795104,16.9112329 3.04611279,16.8788978 2.64194077,16.8142277 C2.22160188,16.7495576 1.7850961,16.66872 1.33242345,16.5555473 C0.863583904,16.4423746 0.42707813,16.2806994 0.0229061151,16.086689 L3.72512178,0.53352838 L7.03933231,0.0161675267 L5.72981496,5.52929413 C6.02081882,5.39995392 6.27948892,5.30294873 6.57049277,5.23827866 C6.84532972,5.157441 7.15250048,5.12510594 7.47583809,5.12510594 Z M4.69513461,14.2759261 C5.19630792,14.2759261 5.66514745,14.1627534 6.10165323,13.9040729 C6.53815901,13.66156 6.92616413,13.3382095 7.24950174,12.9340214 C7.57283935,12.5298332 7.83150945,12.0609749 8.00934513,11.5597816 C8.18718082,11.0424207 8.28418208,10.5088923 8.28418208,9.95919641 C8.28418208,9.28016029 8.17101396,8.74663194 7.94467762,8.35861129 C7.71834128,7.97059063 7.24950174,7.79274784 6.63516028,7.79274784 C6.4411577,7.79274784 6.23098826,7.80891537 5.90765065,7.88975303 C5.58431304,7.9544231 5.30947609,8.11609837 5.05080599,8.34244376 L3.66045425,14.2112559 C4.08079315,14.2759261 4.21012819,14.2920936 4.32329636,14.2920936 C4.40413076,14.2759261 4.5334658,14.2759261 4.69513461,14.2759261 Z"/>
        </g>
        <path fill="#97AAFF" d="M3.47914711,0.503671701 C4.17325549,0.503671701 4.76927445,0.622243212 5.26722178,0.859389817 C5.76516907,1.09653647 6.14239625,1.42496908 6.3989146,1.84469762 C6.65543291,2.26442611 6.78369015,2.74920529 6.78369015,3.29904963 C6.78369015,3.88666955 6.65651068,4.38823762 6.40214801,4.80376883 C6.1477853,5.21930009 5.77379148,5.53514104 5.28015537,5.75130124 C4.78651932,5.96746143 4.18618918,6.0755399 3.47914711,6.0755399 L1.25456234,6.0755399 L1.25456234,9.67049665 L0,9.67049665 L0,0.503671701 L3.47914711,0.503671701 Z M3.47914711,5.09338005 C4.17756672,5.09338005 4.69382904,4.93388562 5.02794957,4.61489195 C5.36207005,4.29589827 5.52912781,3.86148581 5.52912781,3.31164143 C5.52912781,2.9800559 5.45691577,2.67680661 5.31248947,2.40188441 C5.16806317,2.12696222 4.9417269,1.90660809 4.6334738,1.74081533 C4.32522069,1.57502257 3.94044897,1.4921274 3.47914711,1.4921274 L1.25456234,1.4921274 L1.25456234,5.09338005 L3.47914711,5.09338005 Z M13.2009005,8.18466515 C13.2009005,8.42391037 13.2224564,8.67049719 13.2655687,8.92443293 C13.308681,9.17836871 13.369037,9.39347632 13.4466392,9.56976231 L13.4466392,9.67049665 L12.18561,9.67049665 C12.1123194,9.50680251 12.0562741,9.26965948 12.017473,8.95906037 C11.776044,9.21089749 11.4861182,9.41341345 11.1476864,9.56661436 C10.8092546,9.71981528 10.4374164,9.79641459 10.0321606,9.79641459 C9.56654724,9.79641459 9.15375309,9.70722362 8.79376539,9.52883897 C8.43377724,9.35045436 8.15570696,9.10806477 7.95954586,8.80166299 C7.76338481,8.49526116 7.66530573,8.15528613 7.66530573,7.78172779 C7.66530573,7.29903997 7.79356297,6.88981081 8.05008133,6.55402801 C8.30659963,6.2182452 8.67089327,5.96536257 9.14297343,5.79537248 C9.61505329,5.62538244 10.1722717,5.54038871 10.8146454,5.54038871 L11.9916059,5.54038871 L11.9916059,4.99894161 C11.9916059,4.5834104 11.865504,4.25707636 11.6132968,4.01992976 C11.3610901,3.78278315 10.9978742,3.66421164 10.5236385,3.66421164 C10.234786,3.66421164 9.97611573,3.71352898 9.74762073,3.81216518 C9.51912524,3.91080138 9.34128967,4.04301388 9.21410814,4.20880664 C9.08692661,4.3745994 9.02333708,4.55403067 9.02333708,4.74710578 L7.81404252,4.74710578 C7.81404252,4.41552026 7.93044404,4.09443274 8.16325056,3.78383363 C8.39605713,3.47323457 8.72370589,3.22035189 9.14620644,3.02517815 C9.56870749,2.83000437 10.0515582,2.73241898 10.5947733,2.73241898 C11.1121212,2.73241898 11.5658718,2.81741271 11.9560383,2.98740276 C12.3462048,3.1573928 12.6512199,3.41342338 12.8710925,3.75550213 C13.0909657,4.09758084 13.2009005,4.51625379 13.2009005,5.01153341 L13.2009005,8.18466515 Z M10.2067646,8.78907119 C10.4826836,8.78907119 10.7402757,8.74185242 10.9795489,8.6474135 C11.2188226,8.55297458 11.4246806,8.42810722 11.5971297,8.27280769 C11.7695794,8.11750811 11.9010697,7.94961926 11.9916059,7.76913599 L11.9916059,6.35885523 L11.0086495,6.35885523 C10.3188523,6.35885523 9.79073449,6.46483508 9.42427977,6.67679799 C9.05782505,6.88876086 8.87460014,7.20250324 8.87460014,7.61803445 C8.87460014,7.8404906 8.9263343,8.03985865 9.02980409,8.2161446 C9.1332734,8.39243059 9.28416421,8.53198822 9.48248095,8.6348217 C9.68079768,8.73765519 9.92222328,8.78907119 10.2067646,8.78907119 Z M20.0384537,2.85833692 L17.2318554,10.7219113 C17.0594062,11.1794154 16.8104364,11.5771022 16.4849382,11.9149837 C16.1594399,12.2528651 15.7164675,12.4218033 15.1560072,12.4218033 C15.0654714,12.4218033 14.9479924,12.410261 14.8035661,12.3871759 C14.6591399,12.3640908 14.5502827,12.3420554 14.4769917,12.321069 L14.4769917,11.3829804 C14.5244151,11.391375 14.5783046,11.3987201 14.6386622,11.4050161 C14.6990192,11.411312 14.7529092,11.4144599 14.8003326,11.4144599 C15.2098996,11.4144599 15.5278483,11.3315648 15.754188,11.165772 C15.9805276,10.9999792 16.1648302,10.7093216 16.3071006,10.2937904 L16.5722404,9.59494591 L14.076049,2.85833692 L15.3952794,2.85833692 L17.1283866,7.95801287 L18.7515574,2.85833692 L20.0384537,2.85833692 Z M32.6530025,2.85833692 L30.622422,9.67049665 L29.6459326,9.67049665 L27.951627,4.52674941 L26.2961221,9.67049665 L25.3196327,9.67049665 L23.2890526,2.85833692 L24.4918802,2.85833692 L25.8628453,7.91394158 L27.4860161,2.85833692 L28.4625055,2.85833692 L30.1115434,8.02726771 L31.4566414,2.85833692 L32.6530025,2.85833692 Z M34.3494369,0.377753764 C34.5736207,0.377753764 34.7493009,0.440712087 34.876482,0.566630645 C35.0036635,0.692549203 35.0672531,0.852043678 35.0672531,1.0451188 C35.0672531,1.23399663 35.0036635,1.39034316 34.876482,1.51416305 C34.7493009,1.63798294 34.5736207,1.69989198 34.3494369,1.69989198 C34.1252526,1.69989198 33.9517282,1.63798294 33.8288579,1.51416305 C33.705988,1.39034316 33.6445538,1.23399663 33.6445538,1.0451188 C33.6445538,0.852043678 33.705988,0.692549203 33.8288579,0.566630645 C33.9517282,0.440712087 34.1252526,0.377753764 34.3494369,0.377753764 Z M33.7350891,9.67049665 L33.7350891,2.85833692 L34.9443837,2.85833692 L34.9443837,9.67049665 L33.7350891,9.67049665 Z M39.5832194,9.67049665 C39.3073009,9.75444234 38.9990522,9.79641459 38.6584651,9.79641459 C38.1712954,9.79641459 37.7800571,9.653709 37.4847376,9.36829363 C37.1894181,9.08287826 37.0417608,8.6190852 37.0417608,7.97690057 L37.0417608,3.74605828 L35.767798,3.74605828 L35.767798,2.85833692 L37.0417608,2.85833692 L37.0417608,1.20251618 L38.2510554,1.20251618 L38.2510554,2.85833692 L39.5573523,2.85833692 L39.5573523,3.74605828 L38.2510554,3.74605828 L38.2510554,7.98319647 C38.2510554,8.30638743 38.3200343,8.52359366 38.4579935,8.6348217 C38.5959532,8.74604975 38.7834888,8.80166299 39.0206067,8.80166299 C39.1111424,8.80166299 39.2102991,8.79431785 39.3180801,8.77962734 C39.425861,8.76493683 39.5120842,8.74919727 39.5767528,8.73240809 L39.5832194,9.67049665 Z M43.9763163,2.73241898 C45.4723139,2.73241898 46.2203015,3.55717314 46.2203015,5.20670619 L46.2203015,9.67049665 L45.0110069,9.67049665 L45.0110069,5.19411439 C45.0110069,4.67365103 44.8956832,4.29590104 44.6650323,4.0608531 C44.4343815,3.82580511 44.0862546,3.70828289 43.6206412,3.70828289 C43.2498753,3.70828289 42.9168378,3.80691761 42.6215183,4.00419001 C42.3261987,4.20146241 42.0923183,4.46588741 41.9198687,4.79747293 L41.9198687,9.67049665 L40.7105741,9.67049665 L40.7105741,0 L41.9198687,0 L41.9198687,3.66421164 C42.1742317,3.36620437 42.4760134,3.13640644 42.8252229,2.97481096 C43.1744329,2.81321548 43.5581269,2.73241898 43.9763163,2.73241898 Z" transform="translate(0 4.971)"/>
      </g>
    </g>
    <g fill-rule="nonzero" transform="translate(21.724 58.202)">
      <g transform="translate(96.346)">
        <g fill="#2FCF6E" transform="translate(0 2.945)">
          <path d="M13.2047988 11.2882335C14.8816499 10.0422434 15.9774318 7.97952193 15.9774318 5.64507593 15.9774318 3.31062989 14.8816858 1.2459901 13.2047988 0L18.0954651 0 18.0954651 11.2882335 13.2047988 11.2882335zM2.12103354 5.64412625C2.12103354 7.97885116 3.21558716 10.0419197 4.89055875 11.2882335L0 11.2882335 0 0 4.89066623 0C3.21558716 1.24619979 2.12103354 3.30926834 2.12103354 5.64412625z"/>
          <path d="M9.04773253,11.2882335 C5.94153611,11.2882335 3.42346636,8.76127631 3.42346636,5.64411673 C3.42346636,2.52695713 5.94153611,0 9.04773253,0 C12.153929,0 14.6719987,2.52695713 14.6719987,5.64411673 C14.6719987,8.76127631 12.153929,11.2882335 9.04773253,11.2882335 Z M11.6931842,5.66283552 L11.6901678,5.65710806 L11.6896559,5.65615661 C11.6878278,5.65039186 11.6864566,5.6443659 11.6843726,5.63813475 L11.6841166,5.6376497 L11.6838607,5.63716465 L11.6836047,5.6366796 L11.6833488,5.63619455 L11.6830928,5.63570945 L11.6828369,5.6352244 L11.682325,5.63427295 C11.6186135,5.41682864 11.4922968,5.22396156 11.319784,5.0807262 L11.3195281,5.08024115 C11.3144275,5.0762674 11.309071,5.07182724 11.3039522,5.06787214 L11.2968955,5.06251779 L11.291795,5.05856269 L11.2896012,5.05669708 L11.2847383,5.05320838 L11.2825445,5.05134278 L11.2776816,5.04785408 L11.2754879,5.04598848 L11.2703873,5.04203337 L11.2677182,5.04041027 L11.2626176,5.03645517 L11.2599486,5.03483207 L11.2544641,5.03110087 L11.251795,5.02947777 L11.2485592,5.02447791 L11.2456524,5.02238841 L11.2401679,5.01865721 L11.2372612,5.01656771 L11.2316853,5.01283646 L11.2287785,5.010747 L11.2232941,5.00701575 L11.2203873,5.00492625 L11.2145555,5.0007473 L11.2116487,4.9986578 L11.2053599,4.99472135 L11.2024532,4.99263184 L11.1961643,4.98869539 L11.1932575,4.98660594 L11.1869687,4.98266949 L11.1840619,4.98057999 L11.1777731,4.97664353 L11.174391,4.97477793 L11.1681021,4.97084148 L11.1647201,4.96897588 L11.1579559,4.96524463 L11.1545738,4.96337903 L11.1475537,4.95923732 L11.1441716,4.95737172 L11.1371515,4.95323007 L11.1337694,4.95136447 L11.1267493,4.94722277 L11.123093,4.94490941 L11.1160729,4.94076776 L11.1124166,4.93845441 L11.1049395,4.93455526 L11.1012832,4.93224191 L11.093806,4.92834275 L11.088742,4.92558165 L11.0884861,4.9250966 C11.0848298,4.9227832 11.081009,4.92119745 11.0773709,4.9188841 C10.9221759,4.83748424 10.7546094,4.78345294 10.5817587,4.75907547 C10.6302345,4.7059116 10.6746254,4.64901616 10.7145374,4.58889404 L10.7208994,4.57924881 L10.7213747,4.57898762 L10.724318,4.57428627 L10.7281754,4.56786856 L10.730223,4.56490223 L10.7340804,4.55848451 L10.7361279,4.55551818 L10.7399853,4.54910046 L10.7420328,4.54613414 L10.7458902,4.53971642 L10.7479378,4.53675009 L10.7517951,4.53033237 L10.7538427,4.52736605 L10.7572248,4.52119086 L10.7592723,4.51822453 L10.7626544,4.51204935 L10.7642449,4.50932554 L10.767627,4.50315036 L10.7692175,4.50042656 L10.7725995,4.49425138 L10.77419,4.49152758 L10.7770968,4.48561357 L10.7786873,4.48288978 L10.7815941,4.47697577 L10.7831846,4.47425198 L10.7860913,4.46833798 L10.7876818,4.46561418 L10.7908262,4.46018524 L10.7924167,4.45746144 L10.7955794,4.4520325 L10.7971699,4.4493087 L10.7998756,4.44414095 L10.8014661,4.44141715 L10.8041717,4.43624939 L10.8052869,4.43378678 L10.8079926,4.42861903 L10.8091077,4.42615641 L10.8118134,4.42098866 L10.8129286,4.41852605 L10.8156343,4.41335829 L10.8167494,4.41089568 L10.8189798,4.40597045 L10.820095,4.40350784 L10.8223253,4.39858262 L10.8234405,4.39612001 L10.8256708,4.39119479 L10.826786,4.38873217 L10.8292357,4.38313533 L10.8325812,4.37567287 C10.835031,4.37007602 10.8370054,4.36462842 10.8394551,4.3589756 L10.8399304,4.35871442 C10.9143066,4.17163514 10.9317427,3.96603228 10.889967,3.76869491 L10.889711,3.76820985 L10.8891991,3.76725839 L10.8889432,3.76677333 L10.8886872,3.76628827 L10.8884313,3.76580321 L10.8881754,3.76531815 L10.8879195,3.76483309 L10.8876635,3.76434803 C10.8865483,3.75875118 10.8854331,3.75326627 10.8838609,3.74796793 L10.8838609,3.74675527 L10.883605,3.74627021 L10.883349,3.74578515 L10.8830931,3.74530009 L10.883349,3.74578515 L10.8810822,3.74149424 C10.8794368,3.73378925 10.8777732,3.72608426 10.8753966,3.71815539 C10.8737512,3.7104504 10.8713747,3.70252154 10.869254,3.69505907 L10.8664935,3.68981669 L10.8659816,3.68886523 C10.8643911,3.68358554 10.8628189,3.67828719 10.8612284,3.6730075 L10.8609725,3.67252244 L10.8607165,3.67203738 L10.8604606,3.67155232 L10.8602046,3.67106726 L10.8599487,3.6705822 L10.8596927,3.67009714 L10.8594551,3.66961208 C10.8028729,3.47610658 10.6904905,3.30447843 10.5369506,3.17708963 L10.536713,3.17660457 C10.5323254,3.17287334 10.5274625,3.16936598 10.523075,3.16563475 L10.5170055,3.16097071 L10.5121426,3.15748201 L10.5099488,3.1556164 L10.5058172,3.15235157 L10.5036234,3.15048595 L10.4994918,3.14722113 L10.497298,3.14535551 L10.4926911,3.14235187 L10.4904973,3.14048626 L10.4856344,3.13699756 L10.4834406,3.13513194 L10.4785777,3.13164324 L10.4763839,3.12977763 L10.471521,3.12628892 L10.4688519,3.12466584 L10.463989,3.12117714 L10.4613199,3.11955405 L10.4564571,3.11606535 L10.453788,3.11444227 L10.448468,3.11121475 L10.4457989,3.10959166 L10.440479,3.10636415 L10.4378099,3.10474107 L10.43249,3.10151355 L10.4298209,3.09989047 L10.4245009,3.09666295 L10.4218318,3.09503986 L10.416256,3.09130864 L10.4135869,3.08968555 L10.408011,3.08595432 L10.4053419,3.08433123 L10.3992907,3.08087985 L10.3966216,3.07925676 L10.3905887,3.07580537 L10.387682,3.07371588 L10.3816307,3.07026449 L10.378724,3.06817501 L10.3726911,3.06472361 L10.3697843,3.06263413 L10.3634955,3.05869768 L10.3601134,3.05683206 L10.3538246,3.05289562 L10.3504425,3.05103 L10.3436783,3.04729877 L10.3402962,3.04543315 L10.3335321,3.04170193 L10.3287057,3.03942587 L10.3284498,3.03894081 L10.3183036,3.03334397 C10.0218868,2.87612856 9.64530558,2.8287979 9.26642087,2.92799267 L9.16786514,2.95381278 L8.9185782,1.96317104 L8.3408819,2.11428588 L8.58934618,3.10100983 L8.12707938,3.22261064 L7.87845063,2.23903957 L7.30075427,2.39015442 L7.54921856,3.37687838 L6.3578661,3.68972341 L6.51638526,4.31843578 L6.99642166,4.19261869 C7.072817,4.17252221 7.15390811,4.18426137 7.22181242,4.22524738 C7.28971672,4.26623339 7.33885672,4.33309979 7.35839591,4.4111009 L8.02470282,7.05686059 C8.051867,7.16505998 7.98807452,7.27527878 7.88210689,7.3032338 L7.46148548,7.41365957 L7.48620213,8.16139819 L8.67614685,7.84933669 L8.92781041,8.83426966 L9.5052142,8.68265112 L9.25658545,7.6954421 L9.71870592,7.57453157 L9.96742613,8.56172194 L10.54483,8.41010335 L10.2952688,7.41905117 C10.3931115,7.39293256 10.4772797,7.37076904 10.5355064,7.35539638 C10.9624898,7.24332886 11.307773,6.98787015 11.5167127,6.66931635 L11.5237693,6.65868234 L11.5242446,6.65842114 L11.5276633,6.65345859 L11.5321971,6.64599614 L11.534464,6.64226493 L11.5389978,6.63480243 L11.5412647,6.63107123 L11.5453232,6.62390727 L11.5475901,6.62017602 L11.5516486,6.61301206 L11.5534768,6.60956066 L11.5575353,6.60239671 L11.5593635,6.59894531 L11.5634219,6.59178135 L11.5652501,6.58833 L11.5689064,6.58142719 L11.5707346,6.57797579 L11.5743909,6.57107304 L11.576219,6.56762164 L11.5800764,6.56120393 L11.5819045,6.55775253 L11.585762,6.55133483 L11.5875901,6.54788342 L11.5909722,6.54170827 L11.5928004,6.53825687 L11.5961825,6.53210031 L11.5980106,6.52864896 L11.6013927,6.52249241 L11.6027272,6.51930221 L11.6061093,6.51314565 L11.6074439,6.50995545 L11.6103506,6.5040415 L11.6119411,6.50131769 L11.6148479,6.49540369 L11.6164384,6.49267989 L11.6193451,6.48676588 L11.6209356,6.48404208 L11.6238424,6.47812808 L11.6254329,6.47540428 L11.6283397,6.46949027 L11.6299302,6.46676647 L11.6328369,6.46085247 L11.6344274,6.45812867 L11.6368772,6.45253181 L11.6384676,6.44980801 L11.6409173,6.44421121 L11.6420325,6.44174856 L11.6447016,6.43536815 L11.6483579,6.42725275 C11.651027,6.42087234 11.6538424,6.41495834 11.6561276,6.40882049 L11.6563469,6.40809288 C11.7399142,6.19763982 11.7595701,5.96641341 11.7127638,5.74441887 L11.7125078,5.74393382 L11.7122519,5.74344877 L11.7119959,5.74296372 L11.71174,5.74247862 L11.7114841,5.74199357 L11.7112281,5.74150852 L11.7109722,5.74102346 L11.7107162,5.74053841 C11.7093451,5.73451246 11.7079923,5.72850516 11.7066212,5.72247925 L11.7066212,5.7212666 L11.7063652,5.7207815 L11.7061093,5.72029645 L11.7058534,5.7198114 L11.7055974,5.71932635 L11.7053414,5.7188413 L11.7050855,5.71835625 L11.7048296,5.71787115 L11.7045737,5.7173861 L11.7043177,5.71690105 L11.7040618,5.716416 L11.7038058,5.71593095 L11.7035499,5.71544585 L11.7032939,5.7149608 L11.7022884,5.7130952 C11.7001312,5.70443874 11.6984493,5.69552109 11.6958168,5.68710718 C11.6949393,5.68208868 11.6937144,5.67290982 11.6931842,5.66283552 Z M8.29901721,3.89290758 C8.39757294,3.86708747 8.80506819,3.76265032 8.93943743,3.72699841 C9.15305714,3.67119785 9.36356892,3.69285765 9.5279199,3.77363879 L9.53340435,3.77613872 L9.5358175,3.77727674 L9.53919959,3.77914235 L9.54088149,3.78005651 L9.54426358,3.78192212 L9.54594548,3.78283628 L9.54932757,3.78470189 L9.55100947,3.78561604 L9.55439156,3.78748166 L9.55607346,3.78839581 L9.55945551,3.79026142 L9.56113741,3.79117558 L9.5645195,3.79304119 L9.5662014,3.79395534 L9.56958349,3.79582096 L9.57126539,3.79673511 L9.57464748,3.79860073 L9.57632938,3.79951488 L9.57971147,3.80138049 L9.58139337,3.80229464 L9.58430014,3.80438413 L9.58598204,3.80529828 L9.58888881,3.80738777 L9.59057071,3.80830192 L9.59347743,3.81039141 L9.59515938,3.81130556 L9.59782846,3.81292865 L9.59951036,3.8138428 L9.60217944,3.81546589 L9.60386134,3.81638004 L9.60653047,3.81800312 L9.60821237,3.81891727 L9.61088145,3.82054036 L9.61256335,3.82145451 L9.61523248,3.8230776 L9.61645735,3.82425293 L9.61912643,3.82587602 L9.62009537,3.8265663 L9.62276445,3.82818939 L9.62373339,3.82887966 L9.62640247,3.83050275 L9.62737141,3.83119302 L9.63004049,3.83281611 L9.63100943,3.83350639 L9.63320323,3.83537201 L9.63417212,3.83606228 L9.63684125,3.83768537 L9.64049756,3.83999873 C9.64316664,3.84162181 9.64559809,3.84397249 9.64826722,3.84559558 C9.73239983,3.91040836 9.79421854,4.00078431 9.8248302,4.10372211 L9.82557974,4.10515864 C9.82636587,4.10780781 9.82740792,4.11092339 9.828194,4.11357257 L9.82844993,4.11405763 L9.8299673,4.11691201 C9.83104594,4.12124024 9.83234392,4.12484088 9.83342251,4.12916911 C9.83459969,4.1335887 9.83537085,4.13811059 9.83572601,4.14267616 L9.83724334,4.14553056 L9.83749932,4.14601562 C9.83790764,4.14897259 9.83863102,4.15187526 9.83965655,4.15467207 L9.84040609,4.15610859 C9.86201198,4.26131753 9.85049504,4.37080295 9.80749934,4.46893497 L9.80371504,4.47777799 L9.8017041,4.48195697 L9.8001136,4.48468077 L9.79967481,4.4861546 L9.79855964,4.48861722 L9.7981209,4.49009105 L9.79653041,4.49281485 L9.79609166,4.49428869 L9.79450117,4.49701249 L9.79406238,4.49848632 L9.79247189,4.50121012 L9.79203315,4.50268396 L9.79044265,4.50540775 L9.79000391,4.50688159 L9.78841342,4.50960539 L9.78797463,4.51107923 L9.78638413,4.51380302 L9.78548836,4.51551939 L9.78389786,4.51824319 L9.78300209,4.51995956 L9.7814116,4.52268335 L9.78051577,4.52439972 L9.77892528,4.52712352 L9.7780295,4.52883988 L9.77598198,4.53180621 L9.77508616,4.53352258 L9.77303863,4.53648891 L9.77214285,4.53820527 L9.77009533,4.5411716 L9.7691995,4.54288797 L9.76715198,4.54585429 L9.7662562,4.54757066 L9.76420868,4.55053699 L9.76331285,4.55225336 L9.76126533,4.55521968 L9.76036955,4.55693605 L9.75832198,4.55990238 L9.7574262,4.56161874 L9.75537868,4.56458507 L9.7544829,4.56630144 L9.75196005,4.56952895 L9.75106423,4.57124532 L9.74854138,4.57447284 L9.74764561,4.5761892 L9.74512275,4.57941671 L9.74422693,4.58113308 L9.74170408,4.5843606 L9.73987595,4.58659933 L9.73645728,4.59156187 C9.63022335,4.74346027 9.4561283,4.86618045 9.24250864,4.921981 C9.10788347,4.95716652 8.70137535,5.06593189 8.60291103,5.09175201 L8.29901721,3.89290758 Z M10.5570055,5.92126053 L10.5585228,5.92411493 L10.5587788,5.92459998 C10.5593455,5.92797678 10.5601499,5.93062593 10.5607166,5.93392809 L10.5609725,5.93441314 L10.5612285,5.93489819 L10.5614845,5.93538324 L10.5617404,5.93586834 C10.5845286,6.05190382 10.5681556,6.17239452 10.515287,6.27772365 L10.5101133,6.28733161 L10.5076271,6.29177176 L10.5057989,6.29522316 L10.5049031,6.29693952 L10.5033126,6.29966332 L10.5024168,6.30137967 L10.5008263,6.30410347 L10.4999305,6.30581982 L10.497883,6.30878617 L10.4969872,6.31050252 L10.4949396,6.31346888 L10.4940439,6.31518523 L10.4919963,6.31815158 L10.4911006,6.31986793 L10.489053,6.32283423 L10.4881572,6.32455063 L10.4861097,6.32751693 L10.4852139,6.32923334 L10.4831663,6.33219964 L10.4822706,6.33391599 L10.480223,6.33688234 L10.4793272,6.33859869 L10.4772797,6.34156504 L10.4763839,6.34328139 L10.4743364,6.34624775 L10.4734406,6.3479641 L10.4709177,6.3511916 L10.4700219,6.35290795 L10.4674991,6.3561355 L10.4666033,6.35785185 L10.4643364,6.36158311 L10.4634406,6.36329946 L10.4611737,6.36703066 L10.4602779,6.36874706 L10.458011,6.37247826 L10.4566399,6.37445581 L10.4543729,6.37818707 L10.4530018,6.38016462 L10.4502596,6.38411972 L10.4488885,6.38609727 L10.4461463,6.39005237 L10.4447752,6.39202993 L10.4420329,6.39598503 L10.4406618,6.39796258 L10.4379013,6.40191768 L10.4365302,6.40389523 L10.4337879,6.40785034 L10.4314845,6.41035029 L10.4271335,6.41581654 C10.2981207,6.5839458 10.0900221,6.72224383 9.83727993,6.78845452 C9.67788328,6.83044955 9.19627468,6.95899043 9.07909006,6.9895119 L8.7512108,5.68759223 C8.86821261,5.65658571 9.35110095,5.53285808 9.5104793,5.49086311 C9.76323974,5.42465242 10.0113932,5.44343913 10.2031848,5.52701873 L10.209437,5.52974253 L10.2125631,5.53110443 L10.2171336,5.53297003 L10.2192907,5.53362298 L10.2233858,5.53567519 L10.2255431,5.53632814 L10.2296381,5.53838034 L10.2317953,5.53903329 L10.2358904,5.54108544 L10.2375723,5.54199959 L10.2416674,5.54405179 L10.2433493,5.54496594 L10.2474443,5.54701809 L10.2491262,5.54793224 L10.2532213,5.54998444 L10.2549032,5.5508986 L10.2582853,5.5527642 L10.2599672,5.55367835 L10.2633492,5.555544 L10.2650311,5.55645815 L10.2684132,5.55832375 L10.2700951,5.5592379 L10.2734772,5.5611035 L10.2751591,5.56201765 L10.2785412,5.56388325 L10.2802231,5.5647974 L10.2836052,5.56666306 L10.2852871,5.56757721 L10.2886692,5.56944281 L10.2903511,5.57035696 L10.2937331,5.57222256 L10.295415,5.57313671 L10.2987971,5.57500236 L10.300479,5.57591651 L10.3033858,5.57800596 L10.3050677,5.57892011 L10.3079745,5.58100961 L10.3096564,5.58192377 L10.3125631,5.58401327 L10.314245,5.58492742 L10.3171518,5.58701692 L10.3188337,5.58793107 L10.3217405,5.59002057 L10.3234224,5.59093472 L10.3260915,5.59255777 L10.3277734,5.59347192 L10.3306801,5.59556142 L10.3345558,5.59835983 C10.3374626,5.60044933 10.3408446,5.60229628 10.3436966,5.60438578 C10.439657,5.67079362 10.5108525,5.76830163 10.5457623,5.88113115 L10.5467678,5.8829968 C10.5478099,5.88611236 10.548596,5.88876151 10.549638,5.89187711 L10.549894,5.89236216 L10.5514113,5.89521656 C10.5524899,5.89954477 10.5535685,5.90387302 10.5549031,5.90868632 C10.5572614,5.90974972 10.5576453,5.91506672 10.5568958,5.92163368 L10.5570055,5.92126053 Z"/>
        </g>
        <path fill="#F7931A" d="M12.0679185,7.49976754 C11.2509085,10.7192522 7.9318054,12.6843922 4.64674436,11.8816116 C1.37019385,11.078831 -0.629778539,7.81753484 0.187231458,4.5980502 C1.00424146,1.37856555 4.32334457,-0.586574421 7.59989505,0.216206163 C10.8849561,1.01062445 12.8849285,4.28028288 12.0679185,7.49976754 Z M8.26754401,6.48229967 C8.51141747,6.30327339 8.69744541,6.04298361 8.77083465,5.72397799 C9.00185084,4.71980518 8.5392395,3.9780088 7.53720449,3.74585429 L7.53784575,3.74600286 L7.81442388,2.54084694 C7.82463481,2.4964625 7.81939989,2.51132662 7.83150512,2.45870797 L7.27176558,2.33050658 C7.22855782,2.32049609 7.19449139,2.3111227 7.19449139,2.3111227 L6.89654335,3.59742398 L6.2552409,3.44884509 L6.53181903,2.24368916 C6.54202996,2.19930472 6.53951327,2.20951014 6.55046342,2.16191235 L5.90996265,2.01351918 C5.89349578,2.08509662 5.90345273,2.04970721 5.89187868,2.09212583 L5.6139385,3.3002662 L4.16788143,2.96413932 C4.16788143,2.96413932 4.16181888,3.00186945 4.151463,3.04596646 L4.01980929,3.60777391 L4.18261994,3.64549438 C4.53677921,3.72754707 4.75772237,4.08182902 4.676072,4.43674385 L4.08555234,7.0076305 C4.0082728,7.34354639 3.93782474,7.63306793 3.51697003,7.53556307 C3.48282067,7.52765119 3.24555448,7.47407684 3.13617234,7.44873486 L3.00920583,8.00062822 C3.00110733,8.03289431 2.9843947,8.10847635 2.9843947,8.10847635 C2.9843947,8.10847635 3.06566083,8.12518897 3.09035098,8.13090926 L4.43115403,8.44155055 L4.134812,9.72674317 L4.77611443,9.87532204 L4.79459573,9.79498819 L5.07245645,8.59012947 L5.7137589,8.73870834 L5.41808776,10.0327295 L5.97281436,10.1612502 L6.05510144,10.1803147 L6.35506131,8.88728721 L6.67507124,8.96142808 C7.6771063,9.19358262 8.41693704,8.73037163 8.64795324,7.72619885 C8.75617047,7.25580413 8.59324546,6.79210215 8.26754401,6.48229967 Z M6.03757769,4.411492 L6.99953129,4.63436033 C7.3536906,4.71641303 7.57463373,5.07069498 7.49298338,5.42560981 C7.41133302,5.78052463 7.05798987,6.00175422 6.70383056,5.91970153 L5.74187696,5.69683317 L6.03757769,4.411492 Z M6.57148488,7.92118723 L5.28888003,7.62402949 L5.58458076,6.33868831 L6.86718561,6.6358461 C7.22134487,6.7178988 7.44228805,7.07218074 7.36063769,7.42709556 C7.27898734,7.78201038 6.92564413,8.00323993 6.57148488,7.92118723 Z" transform="translate(34.644 2.545)"/>
      </g>
      <path fill="#000" d="M5.03214621,9.92950188 C4.99458189,10.345538 4.87683402,10.713126 4.67889906,11.032277 C4.4809641,11.351428 4.20284798,11.600761 3.84454235,11.7802834 C3.48623673,11.9598058 3.05569852,12.0495657 2.55291482,12.0495657 C2.03568331,12.0495657 1.58491848,11.9291735 1.2006068,11.6883854 C0.81629512,11.4475974 0.520119507,11.1049427 0.312071081,10.660411 C0.104022653,10.2158792 0,9.69584187 0,9.10028336 L0,8.6087363 C0,8.01317779 0.106189792,7.49314046 0.318572562,7.0486087 C0.530955331,6.60407699 0.832909979,6.26070988 1.22444556,6.01849708 C1.61598115,5.77628427 2.0732474,5.65517969 2.59625802,5.65517969 C3.09037304,5.65517969 3.51224269,5.74565194 3.86187964,5.92659913 C4.21151657,6.10754637 4.48385366,6.35972884 4.67889906,6.68315415 C4.87394447,7.00657951 4.99313709,7.38057896 5.03648052,7.80516372 L3.9182258,7.80516372 C3.86910326,7.38912764 3.74413159,7.07639287 3.54330707,6.86695 C3.34248255,6.65750719 3.02680269,6.55278733 2.59625802,6.55278733 C2.11370125,6.55278733 1.74889959,6.72874517 1.50184208,7.08066615 C1.25478457,7.43258709 1.13125767,7.93908919 1.13125767,8.60018768 L1.13125767,9.10028336 C1.13125767,9.74998358 1.24611602,10.2543486 1.47583616,10.6133934 C1.70555629,10.9724383 2.06457893,11.151958 2.55291482,11.151958 C2.85342921,11.151958 3.09831588,11.1056533 3.28758216,11.0130425 C3.47684843,10.9204317 3.61987959,10.7850796 3.71667989,10.6069819 C3.81348021,10.4288843 3.87921675,10.2030598 3.91389148,9.92950188 L5.03214621,9.92950188 Z M9.62361831,7.3392626 L9.62361831,11.9640792 L8.605053,11.9640792 L8.57904707,11.5067267 C8.27275355,11.8686212 7.83499153,12.0495657 7.26574791,12.0495657 C6.7803016,12.0495657 6.40032995,11.9099392 6.1258216,11.6306821 C5.85131329,11.351425 5.71406115,10.9168733 5.71406115,10.3270138 L5.71406115,7.3392626 L6.79330696,7.3392626 L6.79330696,10.3355625 C6.79330696,10.6376161 6.86048828,10.8534672 6.99485288,10.9831223 C7.12921748,11.1127774 7.30620047,11.177604 7.52580718,11.177604 C8.0257013,11.177604 8.36377491,11.0023585 8.54003819,10.6518623 L8.54003819,7.3392626 L9.62361831,7.3392626 Z M12.6287291,7.25377617 C12.6894099,7.25377617 12.758036,7.25947521 12.8346093,7.27087348 C12.9111827,7.2822717 12.9682507,7.29509454 13.005815,7.30934235 L12.9971464,8.31380809 C12.8526683,8.2910116 12.7096372,8.27961348 12.5680487,8.27961348 C12.0854919,8.27961348 11.7618658,8.45770848 11.5971608,8.81390378 L11.5971608,11.9640792 L10.517915,11.9640792 L10.517915,7.3392626 L11.545149,7.3392626 L11.5754892,7.86072991 C11.6939613,7.66695967 11.8413267,7.51735991 12.0175899,7.41192609 C12.1938532,7.30649227 12.3975642,7.25377617 12.6287291,7.25377617 Z M15.607834,7.25377617 C15.6685148,7.25377617 15.7371409,7.25947521 15.8137142,7.27087348 C15.8902876,7.2822717 15.9473556,7.29509454 15.9849199,7.30934235 L15.9762513,8.31380809 C15.8317732,8.2910116 15.688742,8.27961348 15.5471535,8.27961348 C15.0645967,8.27961348 14.7409707,8.45770848 14.5762657,8.81390378 L14.5762657,11.9640792 L13.4970199,11.9640792 L13.4970199,7.3392626 L14.5242539,7.3392626 L14.5545941,7.86072991 C14.6730661,7.66695967 14.8204315,7.51735991 14.9966948,7.41192609 C15.1729581,7.30649227 15.3766691,7.25377617 15.607834,7.25377617 Z M20.4420281,9.98506806 L17.3863321,9.98506806 C17.406559,10.2215817 17.4686836,10.4310214 17.5727079,10.6133934 C17.6767321,10.7957654 17.8175961,10.9382414 17.9953041,11.0408256 C18.1730121,11.1434099 18.3803351,11.1947012 18.6172791,11.1947012 C19.1027255,11.1947012 19.4928104,11.0066329 19.7875457,10.6304907 L20.3640103,11.1818783 C20.1935262,11.4297902 19.9565857,11.6363803 19.6531817,11.801655 C19.3497778,11.9669296 18.982809,12.0495657 18.5522643,12.0495657 C18.0957136,12.0495657 17.6969601,11.9519696 17.3559918,11.7567746 C17.0150236,11.5615796 16.7535222,11.2944371 16.5714798,10.9553392 C16.3894374,10.6162413 16.2984176,10.2358304 16.2984176,9.81409515 L16.2984176,9.63884797 C16.2984176,9.16297105 16.3908822,8.74480403 16.5758141,8.38433442 C16.7607461,8.02386476 17.0150237,7.74532421 17.3386546,7.54870439 C17.6622854,7.35208461 18.0263647,7.25377617 18.4309033,7.25377617 C18.8730063,7.25377617 19.2443093,7.34923507 19.5448237,7.54015576 C19.8453381,7.73107645 20.0699981,7.99821892 20.2188106,8.34159118 C20.367623,8.68496344 20.4420281,9.0831838 20.4420281,9.53626424 L20.4420281,9.98506806 Z M19.3757852,9.13447793 C19.3613374,8.83527387 19.2789861,8.58950282 19.1287289,8.39715736 C18.9784718,8.2048119 18.7444208,8.10864062 18.426569,8.10864062 C18.143392,8.10864062 17.91512,8.20552429 17.7417464,8.39929452 C17.5683727,8.59306475 17.4571262,8.86519388 17.4080037,9.21569004 L19.3757852,9.21569004 L19.3757852,9.13447793 Z M23.4818135,7.25377617 C23.9585911,7.25377617 24.3262823,7.38984076 24.5848981,7.66197396 C24.8435138,7.93410715 24.9728197,8.37364554 24.9728197,8.98060232 L24.9728197,11.9640792 L23.8935739,11.9640792 L23.8935739,8.97205369 C23.8935739,8.66430096 23.8263926,8.44560032 23.692028,8.31594525 C23.5576634,8.18629017 23.3517852,8.12146356 23.0743873,8.12146356 C22.872118,8.12146356 22.6915231,8.16990539 22.5325972,8.26679054 C22.3736714,8.36367568 22.2465326,8.49902783 22.151177,8.67285116 L22.151177,11.9640792 L21.0719312,11.9640792 L21.0719312,7.3392626 L22.0861622,7.3392626 L22.1208368,7.8735529 C22.2884313,7.67408353 22.4878081,7.52092183 22.718973,7.41406325 C22.9501379,7.30720466 23.2044156,7.25377617 23.4818135,7.25377617 Z M29.728996,10.4253232 C29.7203274,10.7216777 29.6293075,10.9938068 29.4559338,11.2417188 C29.2825602,11.4896307 29.0513987,11.6862475 28.7624426,11.8315753 C28.4734864,11.9769029 28.1570842,12.0495657 27.8132263,12.0495657 C27.348007,12.0495657 26.9543101,11.946983 26.632124,11.7418145 C26.3099379,11.536646 26.0693855,11.2581055 25.9104596,10.9061845 C25.7515337,10.5542635 25.672072,10.1603174 25.672072,9.7243344 L25.672072,9.57900743 C25.672072,9.14302439 25.7522561,8.7490783 25.9126268,8.39715736 C26.0729975,8.04523643 26.3135498,7.76669588 26.6342911,7.56152738 C26.9550325,7.35635888 27.3465622,7.25377617 27.808892,7.25377617 C28.1816455,7.25377617 28.5117729,7.32715131 28.7992843,7.47390379 C29.0867956,7.62065622 29.3114557,7.82653402 29.4732711,8.09154331 C29.6350866,8.3565526 29.7203274,8.66002645 29.728996,9.00197394 L28.7104307,9.00197394 C28.701762,8.83669933 28.659864,8.68638718 28.5847354,8.55103297 C28.5096068,8.41567875 28.4048618,8.3081094 28.2704972,8.22832166 C28.1361325,8.14853387 27.9779314,8.10864062 27.7958891,8.10864062 C27.4115774,8.10864062 27.1414075,8.24684231 26.9853711,8.52324987 C26.8293348,8.79965744 26.7513178,9.15157307 26.7513178,9.57900743 L26.7513178,9.7243344 C26.7513178,10.7045838 27.1009495,11.1947012 27.8002234,11.1947012 C27.9649284,11.1947012 28.1151833,11.1619318 28.2509927,11.0963918 C28.3868021,11.0308519 28.495159,10.9396672 28.5760667,10.8228352 C28.6569745,10.7060032 28.701762,10.5735005 28.7104307,10.4253232 L29.728996,10.4253232 Z M30.965704,5.56969326 C31.1535256,5.56969326 31.3023357,5.62312174 31.4121391,5.72998033 C31.5219424,5.83683892 31.5768432,5.97290346 31.5768432,6.13817807 C31.5768432,6.30060314 31.5219424,6.43453057 31.4121391,6.53996438 C31.3023357,6.6453982 31.1535256,6.6981143 30.965704,6.6981143 C30.7778825,6.6981143 30.6290724,6.64611054 30.519269,6.54210154 C30.4094657,6.43809249 30.3545649,6.30345273 30.3545649,6.13817807 C30.3545649,5.97290346 30.4094657,5.83683892 30.519269,5.72998033 C30.6290724,5.62312174 30.7778825,5.56969326 30.965704,5.56969326 Z M30.423914,11.9640792 L30.423914,7.3392626 L31.5031598,7.3392626 L31.5031598,11.9640792 L30.423914,11.9640792 Z M36.4413776,9.98506806 L33.3856816,9.98506806 C33.4059085,10.2215817 33.4680332,10.4310214 33.5720573,10.6133934 C33.6760816,10.7957654 33.8169456,10.9382414 33.9946536,11.0408256 C34.1723616,11.1434099 34.3796845,11.1947012 34.6166286,11.1947012 C35.1020749,11.1947012 35.4921599,11.0066329 35.7868952,10.6304907 L36.3633598,11.1818783 C36.1928757,11.4297902 35.9559352,11.6363803 35.6525312,11.801655 C35.3491273,11.9669296 34.9821585,12.0495657 34.5516138,12.0495657 C34.0950631,12.0495657 33.6963096,11.9519696 33.3553413,11.7567746 C33.0143731,11.5615796 32.7528717,11.2944371 32.5708293,10.9553392 C32.3887869,10.6162413 32.2977671,10.2358304 32.2977671,9.81409515 L32.2977671,9.63884797 C32.2977671,9.16297105 32.3902317,8.74480403 32.5751636,8.38433442 C32.7600956,8.02386476 33.0143732,7.74532421 33.338004,7.54870439 C33.6616349,7.35208461 34.0257142,7.25377617 34.4302528,7.25377617 C34.8723557,7.25377617 35.2436588,7.34923507 35.5441732,7.54015576 C35.8446876,7.73107645 36.0693477,7.99821892 36.2181601,8.34159118 C36.3669725,8.68496344 36.4413776,9.0831838 36.4413776,9.53626424 L36.4413776,9.98506806 Z M35.3751347,9.13447793 C35.3606869,8.83527387 35.2783356,8.58950282 35.1280785,8.39715736 C34.9778212,8.2048119 34.7437703,8.10864062 34.4259185,8.10864062 C34.1427415,8.10864062 33.9144696,8.20552429 33.7410958,8.39929452 C33.5677222,8.59306475 33.4564757,8.86519388 33.4073531,9.21569004 L35.3751347,9.21569004 L35.3751347,9.13447793 Z M38.7053195,10.0320856 C38.1678611,9.92095266 37.7532153,9.75710528 37.4613695,9.54053855 C37.1695238,9.32397178 37.0236032,9.03047128 37.0236032,8.66002817 C37.0236032,8.40641715 37.0980082,8.17204412 37.2468207,7.95690217 C37.3956331,7.74176022 37.6080127,7.57078903 37.8839658,7.44398349 C38.1599189,7.31717801 38.4784883,7.25377617 38.8396835,7.25377617 C39.2239952,7.25377617 39.5584569,7.31789039 39.8430787,7.4461207 C40.1277005,7.57435101 40.3465815,7.7503088 40.4997283,7.97399948 C40.652875,8.1976901 40.7294473,8.44916024 40.7294473,8.72841735 L39.6502014,8.72841735 C39.6502014,8.60588617 39.6191391,8.49261773 39.5570136,8.38860873 C39.494888,8.28459969 39.4031458,8.20125125 39.2817842,8.13856087 C39.1604226,8.07587048 39.0130572,8.04452576 38.8396835,8.04452576 C38.5940708,8.04452576 38.4048073,8.09866668 38.2718875,8.20695004 C38.1389677,8.3152334 38.0725088,8.4505856 38.0725088,8.61301062 C38.0725088,8.71559489 38.1006815,8.80250521 38.157028,8.87374427 C38.2133745,8.94498333 38.3108957,9.00909755 38.4495946,9.0660888 C38.5882936,9.12308005 38.7804465,9.17722092 39.0260593,9.22851303 C39.4074814,9.30830077 39.7238836,9.40518444 39.9752755,9.51916693 C40.2266674,9.63314943 40.4202651,9.78132447 40.5560745,9.96369644 C40.6918838,10.1460685 40.7597875,10.37403 40.7597875,10.647588 C40.7597875,10.9182964 40.6810481,11.1605056 40.523567,11.3742228 C40.3660859,11.5879399 40.1428707,11.7539245 39.8539145,11.8721813 C39.5649584,11.9904381 39.231219,12.0495657 38.8526865,12.0495657 C38.4423687,12.0495657 38.086958,11.9754781 37.7864436,11.8273009 C37.4859292,11.6791237 37.2576572,11.4867811 37.1016209,11.2502674 C36.9455846,11.0137537 36.8675676,10.7644208 36.8675676,10.5022611 L37.9121389,10.5022611 C37.9236971,10.7615712 38.0212184,10.9524891 38.2047055,11.0750202 C38.3881927,11.1975514 38.6099632,11.2588161 38.8700237,11.2588161 C39.1329738,11.2588161 39.3374072,11.2082371 39.4833301,11.1070776 C39.629253,11.0059182 39.7022133,10.8712784 39.7022133,10.7031542 C39.7022133,10.5948708 39.6762076,10.5022614 39.6241955,10.4253232 C39.5721834,10.3483851 39.4732174,10.2771471 39.3272946,10.2116071 C39.1813717,10.1460672 38.9740488,10.0862273 38.7053195,10.0320856 Z M45.6214142,9.28835353 C44.956815,9.08603462 44.4439255,8.83670164 44.0827304,8.54034713 C43.7215351,8.24399267 43.5409403,7.85788277 43.5409403,7.38200584 C43.5409403,7.04860703 43.635572,6.75083227 43.8248383,6.48867252 C44.0141046,6.22651277 44.2792179,6.02205974 44.6201861,5.87530726 C44.9611544,5.72855483 45.3512393,5.65517969 45.7904527,5.65517969 C46.2498929,5.65517969 46.6522583,5.7399529 46.9975609,5.90950187 C47.3428635,6.07905079 47.6079768,6.30843712 47.7929088,6.59766772 C47.9778407,6.88689833 48.0703053,7.2067569 48.0703053,7.55725306 L46.9520506,7.55725306 C46.9520506,7.24665074 46.8530846,6.99874254 46.6551496,6.81352098 C46.4572146,6.62829942 46.1646509,6.53569007 45.7774497,6.53569007 C45.4133649,6.53569007 45.1366936,6.61333947 44.9474273,6.76864063 C44.7581611,6.92394174 44.6635293,7.12697005 44.6635293,7.37773153 C44.6635293,7.59999738 44.7704415,7.78806568 44.984269,7.94194207 C45.1980966,8.09581841 45.5347254,8.23829442 45.9941657,8.36937427 C46.4738329,8.50900285 46.866085,8.66857592 47.1709338,8.84809834 C47.4757825,9.02762076 47.703332,9.23990998 47.8535893,9.48497237 C48.0038465,9.73003472 48.0789739,10.0164115 48.0789739,10.3441111 C48.0789739,10.6917577 47.9865093,10.9938068 47.8015774,11.2502674 C47.6166455,11.506728 47.3544217,11.7040573 47.0148982,11.842261 C46.6753747,11.9804648 46.2787884,12.0495657 45.8251272,12.0495657 C45.4032512,12.0495657 45.0023306,11.9747658 44.6223533,11.8251637 C44.2423759,11.6755617 43.9346423,11.4511621 43.699143,11.151958 C43.4636437,10.852754 43.3458958,10.4922897 43.3458958,10.0705545 L44.4684849,10.0705545 C44.4684849,10.4438472 44.5920118,10.720963 44.8390693,10.9019102 C45.0861268,11.0828574 45.4148095,11.1733296 45.8251272,11.1733296 C46.189212,11.1733296 46.4680505,11.0992421 46.6616511,10.9510649 C46.8552517,10.8028876 46.9520506,10.6034212 46.9520506,10.3526598 C46.9520506,10.181686 46.9159316,10.0384977 46.8436925,9.92309041 C46.7714535,9.80768309 46.6407028,9.70011373 46.4514366,9.60037905 C46.2621703,9.50064437 45.9854989,9.39663689 45.6214142,9.28835353 Z M52.6574429,7.3392626 L52.6574429,11.9640792 L51.6388775,11.9640792 L51.6128719,11.5067267 C51.3065783,11.8686212 50.8688162,12.0495657 50.2995725,12.0495657 C49.8141264,12.0495657 49.4341549,11.9099392 49.1596462,11.6306821 C48.8851381,11.351425 48.7478859,10.9168733 48.7478859,10.3270138 L48.7478859,7.3392626 L49.8271317,7.3392626 L49.8271317,10.3355625 C49.8271317,10.6376161 49.8943133,10.8534672 50.0286775,10.9831223 C50.1630422,11.1127774 50.3400251,11.177604 50.5596317,11.177604 C51.0595263,11.177604 51.3975999,11.0023585 51.573863,10.6518623 L51.573863,7.3392626 L52.6574429,7.3392626 Z M55.8402611,7.25377617 C56.2303519,7.25377617 56.5633686,7.35065984 56.839322,7.54443007 C57.1152749,7.7382003 57.3240428,8.0117542 57.4656315,8.36509996 C57.6072197,8.71844566 57.678013,9.13162603 57.678013,9.60465336 L57.678013,9.69441416 C57.678013,10.1474945 57.6064973,10.5521263 57.4634639,10.9083216 C57.320431,11.2645169 57.1116631,11.5437699 56.8371549,11.7460888 C56.5626462,11.9484077 56.234686,12.0495657 55.8532639,12.0495657 C55.3504804,12.0495657 54.9430581,11.8828688 54.6309857,11.54947 L54.6309857,13.7421973 L53.5517398,13.7421973 L53.5517398,7.3392626 L54.5442991,7.3392626 L54.5876426,7.80516372 C54.9026045,7.43757021 55.3201402,7.25377617 55.8402611,7.25377617 Z M56.5987672,9.60465336 C56.5987672,9.16582078 56.5113593,8.80891845 56.3365409,8.53393566 C56.1617221,8.25895292 55.8966089,8.12146356 55.5411929,8.12146356 C55.1193167,8.12146356 54.8159174,8.29385952 54.6309857,8.63865655 L54.6309857,10.6689596 C54.8188073,11.0194558 55.125096,11.1947012 55.5498616,11.1947012 C55.9023882,11.1947012 56.1653344,11.0550748 56.338708,10.7758176 C56.5120816,10.4965605 56.5987672,10.1360963 56.5987672,9.69441416 L56.5987672,9.60465336 Z M60.6787894,7.25377617 C61.0688802,7.25377617 61.4018974,7.35065984 61.6778503,7.54443007 C61.9538037,7.7382003 62.1625711,8.0117542 62.3041598,8.36509996 C62.445748,8.71844566 62.5165413,9.13162603 62.5165413,9.60465336 L62.5165413,9.69441416 C62.5165413,10.1474945 62.4450256,10.5521263 62.3019927,10.9083216 C62.1589593,11.2645169 61.9501914,11.5437699 61.6756832,11.7460888 C61.401175,11.9484077 61.0732143,12.0495657 60.6917922,12.0495657 C60.1890087,12.0495657 59.7815869,11.8828688 59.469514,11.54947 L59.469514,13.7421973 L58.3902681,13.7421973 L58.3902681,7.3392626 L59.3828274,7.3392626 L59.4261709,7.80516372 C59.7411328,7.43757021 60.1586685,7.25377617 60.6787894,7.25377617 Z M61.4372955,9.60465336 C61.4372955,9.16582078 61.3498876,8.80891845 61.1750693,8.53393566 C61.0002509,8.25895292 60.7351372,8.12146356 60.3797212,8.12146356 C59.9578455,8.12146356 59.6544457,8.29385952 59.469514,8.63865655 L59.469514,10.6689596 C59.6573356,11.0194558 59.9636243,11.1947012 60.3883899,11.1947012 C60.7409165,11.1947012 61.0038627,11.0550748 61.1772363,10.7758176 C61.3506099,10.4965605 61.4372955,10.1360963 61.4372955,9.69441416 L61.4372955,9.60465336 Z M63.0337523,9.60892768 C63.0337523,9.15869683 63.1211602,8.75548982 63.2959786,8.39929452 C63.4707969,8.04309922 63.7229073,7.7631339 64.0523176,7.55939022 C64.3817275,7.35564649 64.768923,7.25377617 65.2139154,7.25377617 C65.6646872,7.25377617 66.0554944,7.35564649 66.386349,7.55939022 C66.717204,7.7631339 66.9700368,8.04309922 67.1448551,8.39929452 C67.3196735,8.75548982 67.4070814,9.15869683 67.4070814,9.60892768 L67.4070814,9.69868847 C67.4070814,10.1489193 67.3196735,10.5521263 67.1448551,10.9083216 C66.9700368,11.2645169 66.7179264,11.5437699 66.3885165,11.7460888 C66.0591062,11.9484077 65.670466,12.0495657 65.2225841,12.0495657 C64.7747018,12.0495657 64.3853392,11.9484077 64.0544847,11.7460888 C63.7236297,11.5437699 63.4707969,11.2645169 63.2959786,10.9083216 C63.1211602,10.5521263 63.0337523,10.1489193 63.0337523,9.69868847 L63.0337523,9.60892768 Z M64.1129981,9.69868847 C64.1129981,10.137521 64.2054625,10.4965605 64.3903947,10.7758176 C64.5753265,11.0550748 64.8527202,11.1947012 65.2225841,11.1947012 C65.4681968,11.1947012 65.6740748,11.1284499 65.8402249,10.9959453 C66.0063745,10.8634406 66.1291792,10.6846333 66.2086422,10.4595178 C66.2881048,10.2344024 66.3278356,9.98079512 66.3278356,9.69868847 L66.3278356,9.60892768 C66.3278356,9.32967057 66.2881048,9.07677571 66.2086422,8.85023549 C66.1291792,8.62369532 66.0056522,8.44346317 65.8380574,8.30953377 C65.670463,8.17560433 65.4624175,8.10864062 65.2139154,8.10864062 C64.9683028,8.10864062 64.7631471,8.17560433 64.5984417,8.30953377 C64.4337368,8.44346317 64.3116545,8.62369532 64.2321919,8.85023549 C64.1527289,9.07677571 64.1129981,9.32967057 64.1129981,9.60892768 L64.1129981,9.69868847 Z M70.230151,7.25377617 C70.2908319,7.25377617 70.3594578,7.25947521 70.4360314,7.27087348 C70.5126046,7.2822717 70.5696728,7.29509454 70.607237,7.30934235 L70.5985683,8.31380809 C70.4540902,8.2910116 70.3110587,8.27961348 70.1694705,8.27961348 C69.6869139,8.27961348 69.3632877,8.45770848 69.1985828,8.81390378 L69.1985828,11.9640792 L68.119337,11.9640792 L68.119337,7.3392626 L69.1465706,7.3392626 L69.1769113,7.86072991 C69.2953833,7.66695967 69.4427483,7.51735991 69.6190119,7.41192609 C69.7952749,7.30649227 69.9989858,7.25377617 70.230151,7.25377617 Z M73.1442413,11.1690553 C73.2598234,11.1690553 73.382628,11.1548077 73.5126581,11.1263121 L73.5126581,11.9469819 C73.3046096,12.0153714 73.070559,12.0495657 72.8104983,12.0495657 C72.4290762,12.0495657 72.1285663,11.9455582 71.9089597,11.7375401 C71.6893532,11.5295221 71.5795513,11.1975531 71.5795513,10.7416231 L71.5795513,8.12573792 L70.8167111,8.12573792 L70.8167111,7.3392626 L71.5795513,7.3392626 L71.5795513,6.21084156 L72.6587972,6.21084156 L72.6587972,7.3392626 L73.4823179,7.3392626 L73.4823179,8.12573792 L72.6587972,8.12573792 L72.6587972,10.6689596 C72.6587972,10.8627298 72.6992503,10.9945202 72.7801581,11.0643344 C72.8610658,11.1341487 72.9824257,11.1690553 73.1442413,11.1690553 Z M78.0824589,9.98506806 L75.0267629,9.98506806 C75.0469897,10.2215817 75.1091143,10.4310214 75.2131388,10.6133934 C75.3171628,10.7957654 75.4580267,10.9382414 75.6357349,11.0408256 C75.8134427,11.1434099 76.0207658,11.1947012 76.2577098,11.1947012 C76.7431564,11.1947012 77.1332413,11.0066329 77.4279763,10.6304907 L78.0044411,11.1818783 C77.8339569,11.4297902 77.5970163,11.6363803 77.2936126,11.801655 C76.9902084,11.9669296 76.6232397,12.0495657 76.1926952,12.0495657 C75.7361442,12.0495657 75.3373906,11.9519696 74.9964226,11.7567746 C74.6554542,11.5615796 74.3939527,11.2944371 74.2119104,10.9553392 C74.029868,10.6162413 73.9388483,10.2358304 73.9388483,9.81409515 L73.9388483,9.63884797 C73.9388483,9.16297105 74.0313127,8.74480403 74.216245,8.38433442 C74.4011767,8.02386476 74.6554542,7.74532421 74.9790852,7.54870439 C75.3027163,7.35208461 75.6667955,7.25377617 76.0713339,7.25377617 C76.5134369,7.25377617 76.8847402,7.34923507 77.1852545,7.54015576 C77.4857688,7.73107645 77.7104289,7.99821892 77.8592411,8.34159118 C78.0080538,8.68496344 78.0824589,9.0831838 78.0824589,9.53626424 L78.0824589,9.98506806 Z M77.0162159,9.13447793 C77.0017679,8.83527387 76.9194169,8.58950282 76.7691595,8.39715736 C76.6189026,8.2048119 76.3848515,8.10864062 76.0669997,8.10864062 C75.7838228,8.10864062 75.555551,8.20552429 75.3821769,8.39929452 C75.2088032,8.59306475 75.0975567,8.86519388 75.0484344,9.21569004 L77.0162159,9.21569004 L77.0162159,9.13447793 Z M82.6522593,5.39872035 L82.6522593,11.9640792 L81.677037,11.9640792 L81.6250253,11.4810808 C81.3129528,11.8600726 80.8954176,12.0495657 80.3724068,12.0495657 C80.0025428,12.0495657 79.6781943,11.9484077 79.3993515,11.7460888 C79.1205092,11.5437699 78.9059625,11.2645169 78.7557051,10.9083216 C78.6054477,10.5521263 78.5303202,10.1503441 78.5303202,9.70296279 L78.5303202,9.61320204 C78.5303202,9.14587379 78.6047254,8.7341182 78.7535381,8.3779229 C78.9023503,8.0217276 79.1161746,7.74532421 79.3950174,7.54870439 C79.6738602,7.35208461 80.0025428,7.25377617 80.3810755,7.25377617 C80.8723009,7.25377617 81.2696098,7.42332259 81.5730135,7.76242053 L81.5730135,5.39872035 L82.6522593,5.39872035 Z M80.6454688,11.177604 C81.0731238,11.177604 81.3823025,10.9923852 81.5730135,10.621942 L81.5730135,8.66430249 C81.3851919,8.30240805 81.0789031,8.12146356 80.6541375,8.12146356 C80.301611,8.12146356 80.0393871,8.2596653 79.8674582,8.53607282 C79.6955293,8.81248038 79.6095661,9.17151987 79.6095661,9.61320204 L79.6095661,9.70296279 C79.6095661,10.1417954 79.6940846,10.497273 79.8631241,10.7694062 C80.0321631,11.0415394 80.2929423,11.177604 80.6454688,11.177604 Z" opacity=".5"/>
    </g>
  </g>
</svg>
